<svg xmlns="http://www.w3.org/2000/svg" width="375" height="133" viewBox="0 0 375 133">
    <g fill="none" fill-rule="evenodd">
        <path fill="#0181C4" d="M.01 127.836c102.821-41.001 266.373-44.35 374.953 4.223.044 0 .066-43.933.066-131.8H0c.019 85.052.022 127.577.01 127.577z" transform="translate(-.029 .74)"/>
        <path fill="#FFC000" d="M375.029 132.26V.269C261.452.045 204.61.045 204.504.269c-18.793 39.725-32.96 72.049-42.5 96.972 0 0 114.911-8.098 213.025 35.019z" transform="translate(-.029 .74)"/>
        <path fill="#7DB8E6" d="M281.997 104.77c-1.32-51.316-43.334-92.51-94.968-92.51-51.256 0-93.031 40.592-94.933 91.383-.045 1.2 47.433-7.033 94.933-7.033 47.5 0 94.989 8.987 94.968 8.16z" transform="translate(-.029 .74)"/>
    </g>
</svg>
