<svg xmlns="http://www.w3.org/2000/svg" xmlns:xlink="http://www.w3.org/1999/xlink" width="375" height="164" viewBox="0 0 375 164">
    <defs>
        <path id="prefix__a" d="M0.01 0H375.01V164H0.01z"/>
    </defs>
    <g fill="none" fill-rule="evenodd" transform="translate(-.01)">
        <mask id="prefix__b" fill="#fff">
            <use xlink:href="#prefix__a"/>
        </mask>
        <g fill="#0181C4" mask="url(#prefix__b)">
            <g>
                <path d="M450 177.685C404.669 61.18 254.669 1.951 0 0v177.685h450z" opacity=".799" transform="matrix(-1 0 0 1 540.01 -11)"/>
                <path d="M149.515 9.172C194.532 14.868 54.66.419 0 0v177.685h254.414C183.604 65.232 148.638 9.061 149.515 9.172z" transform="matrix(-1 0 0 1 540.01 -11)"/>
            </g>
        </g>
        <g mask="url(#prefix__b)">
            <g>
                <path fill="#FFF" d="M375.01 99.512C304.09 36.752 179.069 3.582.006.002.003-.182.001 43.393.001 130.727H375.01V99.512z" opacity=".799" transform="translate(0 33.273)"/>
                <path fill="#FFC000" d="M375.01 99.512C304.09 36.752 179.069 3.582.006.002.003-.182.001 43.393.001 130.727H375.01V99.512z" opacity=".799" transform="translate(0 33.273)"/>
                <path fill="#FFC000" d="M91.01 4.727C90.978 4.733 0 1.048 0 1.048v129.679h168.404C117.295 46.628 91.497 4.628 91.01 4.727z" transform="translate(0 33.273)"/>
            </g>
        </g>
    </g>
</svg>
