<svg xmlns="http://www.w3.org/2000/svg" width="164" height="25" fill="none" viewBox="0 0 164 25">
    <path fill="#F7A700" fill-rule="evenodd" d="M13.647 4.518c3.468-3.472 8.57-5.197 13.716-4.27l-3.881 11.797-9.835-7.527zM28.117.655c4.917 1.229 8.692 4.717 10.513 9.06l-12.246 3.334L27.48.502c.11.022.214.05.318.077.105.027.209.054.319.076zm11.327 17.413c.401-2.788.063-5.553-.887-8.03l-8.744 4.468c3.274.907 6.547 2.058 9.63 3.562zM9.729 11.669c.685-2.568 1.971-4.828 3.664-6.65l6.623 7.528c-3.794-.527-7.33-.768-10.287-.878z" clip-rule="evenodd"/>
    <path fill="#1E366C" fill-rule="evenodd" d="M40.305 18.627C22.931 9.615 0 12.139 0 12.139c14.98.937 26.995 6.08 33.562 9.636 1.582.793 3.119 1.634 4.547 2.547.944-1.562 1.669-3.316 2.108-5.239.022-.144.044-.288.088-.456zM51.45 12.056h3.152c.377 0 .755-.022 1.088-.086.355-.064.666-.17.954-.32.289-.15.51-.364.688-.62.178-.257.267-.577.267-.983 0-.428-.111-.77-.333-1.026-.222-.257-.51-.47-.866-.599-.355-.15-.755-.235-1.176-.277-.444-.043-.844-.064-1.244-.064h-2.486l-.044 3.975zm-4.196-7.887h7.126c.999 0 1.931.086 2.819.278.888.193 1.665.492 2.309.94.666.45 1.176 1.048 1.576 1.817.377.748.577 1.71.577 2.864 0 1.132-.178 2.094-.533 2.842-.355.77-.866 1.39-1.487 1.838-.622.449-1.377.79-2.242.983-.866.192-1.798.278-2.82.278h-3.24v7.822h-4.063l-.022-19.662zm15.4 5.899h3.917v2.308h.043c.414-.77.914-1.346 1.502-1.731.565-.385 1.305-.577 2.175-.577.218 0 .457 0 .675.021.217.022.435.043.63.107v3.526c-.282-.085-.543-.15-.826-.192-.261-.043-.544-.064-.849-.064-.74 0-1.349.107-1.784.3-.435.213-.761.49-1 .854-.24.363-.392.812-.457 1.325-.066.513-.11 1.09-.11 1.688v6.198h-3.915V10.068zm76.945 0h-3.916V23.83h3.916v-6.198c0-.598.044-1.175.109-1.688.065-.513.218-.962.457-1.325.239-.363.566-.641 1.001-.855.435-.192 1.044-.3 1.784-.3.304 0 .587.022.848.065.283.043.544.107.827.192v-3.526c-.196-.064-.413-.085-.631-.107-.217-.021-.457-.021-.674-.021-.871 0-1.61.192-2.176.577-.587.385-1.088.962-1.501 1.731h-.044v-2.308zm-64.117 7.127c0 1.025.28 1.853.816 2.485.537.632 1.31.959 2.275.959.988 0 1.74-.327 2.276-.96.536-.631.816-1.46.816-2.484s-.28-1.852-.816-2.485c-.537-.632-1.31-.959-2.276-.959-.987 0-1.738.328-2.275.96-.558.632-.816 1.46-.816 2.484zm-3.885 0c0-1.09.172-2.07.537-2.942.364-.872.858-1.635 1.48-2.245.623-.632 1.374-1.112 2.212-1.439.858-.327 1.76-.501 2.726-.501s1.867.174 2.726.501 1.589.828 2.211 1.439c.623.632 1.116 1.373 1.481 2.245.365.871.537 1.852.537 2.942s-.172 2.07-.537 2.942c-.365.872-.858 1.635-1.48 2.245-.623.633-1.375 1.112-2.212 1.439-.859.327-1.76.501-2.726.501s-1.868-.174-2.726-.501c-.859-.327-1.589-.806-2.211-1.439-.623-.632-1.117-1.373-1.481-2.245-.344-.871-.537-1.852-.537-2.942zm78.404 0c0 1.025.279 1.853.816 2.485.536.632 1.309.959 2.275.959.988 0 1.739-.327 2.276-.96.536-.631.815-1.46.815-2.484s-.279-1.852-.815-2.485c-.537-.632-1.31-.959-2.276-.959-.987 0-1.739.328-2.275.96-.558.632-.816 1.46-.816 2.484zm-3.885 0c0-1.09.171-2.07.536-2.942.365-.872.859-1.635 1.481-2.245.623-.632 1.374-1.112 2.211-1.439.859-.327 1.761-.501 2.727-.501s1.867.174 2.726.501 1.588.828 2.211 1.439c.622.632 1.116 1.373 1.481 2.245.365.871.537 1.852.537 2.942s-.172 2.07-.537 2.942c-.365.872-.859 1.635-1.481 2.245-.623.633-1.374 1.112-2.211 1.439-.859.327-1.76.501-2.726.501s-1.868-.174-2.727-.501c-.858-.327-1.588-.806-2.211-1.439-.622-.632-1.116-1.373-1.481-2.245-.343-.871-.536-1.852-.536-2.942zm-58.617-4.1h-1.992v-2.961H87.5v-.937c0-.547.097-1.067.192-1.57.023-.124.046-.247.067-.369.13-.596.347-1.129.693-1.597.346-.469.844-.831 1.494-1.087.649-.255 1.493-.404 2.554-.404 1.06 0 2.36.298 2.944.447l-.823 3.025c-.216-.085-.433-.15-.627-.192-.195-.043-.412-.064-.65-.064-.628 0-1.104.128-1.407.405-.303.255-.476.81-.476 1.619v.703h2.013v2.94H91.46V23.83h-3.983l.022-10.736zm42.373 10.903h3.824v-13.93H129.7v7.602c0 .41-.043.8-.086 1.188-.064.367-.172.713-.322 1.015-.151.302-.387.562-.688.734-.3.195-.537.281-1.031.281-.494 0-.709-.086-.967-.302-.257-.194-.451-.475-.58-.8-.107-.323-.193-.69-.214-1.08l-.004-.06c-.02-.367-.039-.714-.039-1.062V10.11h-3.996v8.25c0 .843.064 1.62.172 2.354.107.735.322 1.361.644 1.901s.774.95 1.375 1.253c.602.302 1.461.453 2.406.453.451 0 .86-.043 1.246-.173.387-.13.731-.28 1.031-.475.301-.194.58-.389.774-.648.215-.302.451-.734.451-.734v1.706zm-22.506 0h-3.824v-1.706s-.236.432-.451.734c-.194.26-.473.454-.774.648-.3.195-.644.346-1.031.475-.386.13-.795.173-1.246.173-.945 0-1.804-.151-2.406-.453-.601-.303-1.052-.713-1.375-1.253-.322-.54-.537-1.166-.644-1.9-.108-.735-.172-1.512-.172-2.355v-8.25h3.996v7.473c0 .348.019.695.04 1.062l.003.06c.021.39.107.757.215 1.08.128.325.322.605.58.8.257.216.472.302.966.302s.731-.086 1.031-.28c.301-.173.538-.433.688-.735.15-.302.258-.648.322-1.015.043-.389.065-.777.086-1.188v-7.602h3.996v13.93zm8.432-10.773h3.988v-3.103h-3.988V6.136h-3.965V10.1h-1.983v3.103h1.983v7.284c0 .69.194 1.292.431 1.767.215.495.474.883.883 1.185.41.301.884.538 1.444.668.561.15 1.251.215 1.897.215.433 0 .866-.04 1.318-.08l.061-.006c.453-.065 1.035-.172 1.897-.56v-3.233c-.582.388-.97.496-1.315.54-.344.042-.603.064-.819.064-.409 0-.732-.065-.991-.173-.259-.107-.431-.258-.56-.474-.13-.194-.194-.452-.237-.732-.022-.28-.044-.604-.044-.948v-5.495zm46.215-3.157c1.104 0 1.987.874 1.987 1.966S163.117 14 162.013 14s-1.987-.874-1.987-1.966c.022-1.092.905-1.966 1.987-1.966zm0 3.583c.905 0 1.612-.678 1.612-1.617 0-.918-.707-1.617-1.612-1.617-.905 0-1.59.7-1.59 1.617s.685 1.617 1.59 1.617zm-.751-2.775h.883c.53 0 .795.219.795.634 0 .371-.243.633-.596.633l.662 1.027h-.397l-.64-1.027h-.332v1.027h-.375v-2.294zm.376 1.005h.441c.287 0 .486-.065.486-.35 0-.261-.199-.327-.486-.327h-.441v.677z" clip-rule="evenodd"/>
</svg>
